<svg xmlns="http://www.w3.org/2000/svg" viewBox="0 0 780 500" fill="none">
  <path d="M293.2 348.7l33.4-195.8h53.4l-33.4 195.8h-53.4z" fill="#1A1F71"/>
  <path d="M531.3 157.1c-10.6-4-27.2-8.3-47.9-8.3-52.8 0-90 26.6-90.2 64.7-.3 28.2 26.6 43.9 46.9 53.3 20.8 9.6 27.8 15.7 27.7 24.3-.1 13.1-16.6 19.1-32 19.1-21.4 0-32.7-3-50.3-10.2l-6.9-3.1-7.5 43.8c12.5 5.5 35.6 10.2 59.6 10.5 56.2 0 92.6-26.3 93-67 .2-22.3-14-39.3-44.8-53.3-18.6-9.1-30-15.1-29.9-24.3 0-8.1 9.7-16.8 30.5-16.8 17.4-.3 30.1 3.5 39.9 7.5l4.8 2.3 7.2-42.5h.3z" fill="#1A1F71"/>
  <path d="M588.8 152.9h-41.3c-12.8 0-22.4 3.5-28 16.2l-79.4 179.6h56.2s9.2-24.1 11.2-29.4c6.1 0 60.8.1 68.6.1 1.6 6.9 6.5 29.3 6.5 29.3h49.7l-43.5-195.8zm-65.8 126.4c4.4-11.3 21.4-54.8 21.4-54.8-.3.5 4.4-11.4 7.1-18.8l3.6 17s10.3 47 12.5 56.6h-44.6z" fill="#1A1F71"/>
  <path d="M247.6 152.9l-52.3 133.5-5.6-27.1c-9.7-31.2-39.9-65.1-73.7-82l47.9 171.3 56.6-.1 84.2-195.7h-57.1z" fill="#1A1F71"/>
  <path d="M146.9 152.9H60.8l-.7 3.8c67.1 16.2 111.5 55.4 129.9 102.5l-18.7-90.1c-3.2-12.3-12.8-15.8-24.4-16.2z" fill="#F2AE14"/>
</svg>
